PathFileType	4	(X/Y/Z)	/tmp/tmpfnw413rt//results/MarkerData/Run_5.trc
DataRate	CameraRate	NumFrames	NumMarkers	Units	OrigDataRate	OrigDataStartFrame	OrigNumFrames
100	100	8	45	m	100	45	364
Frame#	Time	C7			CLAV			LACR			LASI			LCAL			LFAradius			LFAsuperior			LFAulna			LLEL			LMEL			LMT5			LPSH			LPSI			LTB1			LTB2			LTB3			LTH1			LTH2			LTH3			LTOE			LUA1			LUA2			LUA3			RACR			RASI			RCAL			RFAradius			RFAsuperior			RFAulna			RLEL			RLMAL			RMEL			RMMAL			RMT5			RPSI			RTB1			RTB2			RTB3			RTH1			RTH2			RTH3			RTOE			RUA1			RUA2			RUA3		
		X1	Y1	Z1	X2	Y2	Z2	X3	Y3	Z3	X4	Y4	Z4	X5	Y5	Z5	X6	Y6	Z6	X7	Y7	Z7	X8	Y8	Z8	X9	Y9	Z9	X10	Y10	Z10	X11	Y11	Z11	X12	Y12	Z12	X13	Y13	Z13	X14	Y14	Z14	X15	Y15	Z15	X16	Y16	Z16	X17	Y17	Z17	X18	Y18	Z18	X19	Y19	Z19	X20	Y20	Z20	X21	Y21	Z21	X22	Y22	Z22	X23	Y23	Z23	X24	Y24	Z24	X25	Y25	Z25	X26	Y26	Z26	X27	Y27	Z27	X28	Y28	Z28	X29	Y29	Z29	X30	Y30	Z30	X31	Y31	Z31	X32	Y32	Z32	X33	Y33	Z33	X34	Y34	Z34	X35	Y35	Z35	X36	Y36	Z36	X37	Y37	Z37	X38	Y38	Z38	X39	Y39	Z39	X40	Y40	Z40	X41	Y41	Z41	X42	Y42	Z42	X43	Y43	Z43	X44	Y44	Z44	X45	Y45	Z45

46	0.53	0.853987	1.5669	-0.344881	0.9777	1.48964	-0.353487	0.853048	1.56388	-0.505811	0.942385	1.06197	-0.472373	0.811945	0.303539	-0.430521	0.839163	1.28242	-0.553594	0.666345	1.25935	-0.575186	0.827158	1.21784	-0.572575	0.599428	1.3272	-0.590769	0.598451	1.31494	-0.499254	0.935524	0.204766	-0.534945	0.771769	1.53661	-0.484805	0.7834	1.10689	-0.399982	1.11265	0.523912	-0.47254	0.984394	0.489076	-0.505182	0.984651	0.377466	-0.470571	0.923506	0.870576	-0.531831	1.0543	0.828288	-0.5169	1.07093	0.723582	-0.509285	0.996683	0.181197	-0.468798	0.732922	1.48488	-0.540418	0.664811	1.42976	-0.503323	0.635039	1.39929	-0.56545	0.935162	1.53858	-0.205553	0.953129	1.03704	-0.249134	0.306879	0.273521	-0.374395	1.03046	1.29771	-0.218607	0.920816	1.19821	-0.0856847	1.05618	1.23526	-0.208134	0.868025	1.22664	-0.0353198	0.346253	0.233837	-0.306239	0.809876	1.20931	-0.109532	0.386917	0.23764	-0.380309	0.33061	0.106748	-0.299142	0.788041	1.09815	-0.310312	0.575563	0.434669	-0.294075	0.502573	0.415281	-0.257254	0.449298	0.298252	-0.311274	0.757238	0.813724	-0.203804	0.788002	0.723308	-0.236871	0.675013	0.668002	-0.240467	0.392282	0.0750276	-0.365358	0.909485	1.39571	-0.106349	0.830575	1.34471	-0.0997682	0.845786	1.29158	-0.0575716
47	0.54	0.855355	1.56795	-0.345754	0.979409	1.49189	-0.355712	0.85237	1.56501	-0.506484	0.941795	1.06458	-0.47331	0.850725	0.271322	-0.429067	0.833653	1.28698	-0.551774	0.659911	1.26428	-0.566772	0.820734	1.22215	-0.569649	0.592642	1.33249	-0.580619	0.595356	1.32076	-0.488497	0.987434	0.183109	-0.526799	0.77162	1.53866	-0.483217	0.785046	1.11083	-0.398993	1.12546	0.524022	-0.4717	1.00239	0.474583	-0.505113	1.01502	0.363639	-0.467677	0.920375	0.872993	-0.530779	1.05156	0.830646	-0.51786	1.06781	0.725203	-0.507176	1.04905	0.169817	-0.458314	0.731212	1.48816	-0.536791	0.664524	1.43441	-0.496231	0.631011	1.40457	-0.556408	0.937539	1.54142	-0.20746	0.954686	1.03936	-0.250512	0.287082	0.30236	-0.369116	1.02937	1.30732	-0.22474	0.92761	1.20251	-0.0892573	1.05692	1.24546	-0.216247	0.876252	1.22858	-0.0364444	0.322757	0.257662	-0.303734	0.815517	1.21132	-0.109293	0.361496	0.259631	-0.378674	0.296446	0.131734	-0.29909	0.79078	1.1018	-0.309284	0.56373	0.443217	-0.295272	0.490562	0.427667	-0.257359	0.428921	0.315063	-0.310796	0.75424	0.819628	-0.203893	0.784678	0.727615	-0.236321	0.671732	0.673606	-0.241173	0.354668	0.0897359	-0.365842	0.914542	1.39927	-0.107984	0.836693	1.34718	-0.0996027	0.853018	1.2938	-0.0581048
48	0.55	0.857384	1.56898	-0.34663	0.981363	1.49351	-0.35792	0.852216	1.56541	-0.507799	0.940331	1.06592	-0.474136	0.890369	0.24008	-0.425827	0.829427	1.28945	-0.550288	0.654965	1.26737	-0.559041	0.815712	1.22432	-0.566952	0.587541	1.33605	-0.571482	0.593665	1.32483	-0.478892	1.03797	0.161817	-0.516564	0.771899	1.53997	-0.482752	0.785627	1.11305	-0.398323	1.13503	0.521815	-0.471903	1.01873	0.458166	-0.504609	1.04382	0.349671	-0.464801	0.914231	0.871662	-0.528134	1.04554	0.829503	-0.519685	1.06084	0.723555	-0.504625	1.0993	0.160212	-0.446727	0.730021	1.48979	-0.534065	0.6648	1.43735	-0.490012	0.628192	1.40806	-0.548447	0.94058	1.5433	-0.209026	0.955264	1.04168	-0.25163	0.266226	0.333324	-0.364116	1.02883	1.31314	-0.2299	0.933092	1.20512	-0.092516	1.05761	1.25175	-0.222864	0.883247	1.22936	-0.0377065	0.300216	0.284196	-0.302059	0.820302	1.21252	-0.109248	0.335964	0.285208	-0.378578	0.264912	0.15983	-0.299596	0.791949	1.10462	-0.308072	0.555224	0.44985	-0.298815	0.482226	0.438928	-0.259372	0.410116	0.333233	-0.312054	0.754799	0.822271	-0.204222	0.785602	0.729829	-0.238456	0.673563	0.675202	-0.242608	0.317402	0.112887	-0.369511	0.919838	1.40078	-0.109645	0.842377	1.34844	-0.0992903	0.859726	1.29475	-0.0586337
49	0.56	0.860052	1.57062	-0.34779	0.983247	1.49445	-0.3601	0.852618	1.56539	-0.509579	0.938313	1.06654	-0.474522	0.929976	0.210672	-0.420426	0.82678	1.28966	-0.549306	0.651748	1.26855	-0.552183	0.812423	1.22428	-0.564764	0.584299	1.33779	-0.563425	0.593591	1.32705	-0.470727	1.08573	0.142013	-0.505621	0.77259	1.54098	-0.483204	0.785444	1.11339	-0.39788	1.14099	0.516852	-0.472569	1.03337	0.439434	-0.503231	1.07041	0.335457	-0.461668	0.906629	0.867833	-0.524917	1.03756	0.825486	-0.522024	1.05169	0.719125	-0.503099	1.14627	0.151969	-0.43573	0.729292	1.49019	-0.532249	0.665575	1.43871	-0.484838	0.626632	1.40977	-0.541756	0.944506	1.54425	-0.210505	0.95529	1.04388	-0.252061	0.247324	0.366285	-0.360176	1.02931	1.31494	-0.234312	0.937108	1.20605	-0.0954379	1.05861	1.2537	-0.228093	0.888626	1.22931	-0.03913	0.280123	0.31329	-0.300884	0.824141	1.21328	-0.109643	0.312978	0.313296	-0.378867	0.236452	0.190972	-0.299731	0.791763	1.10613	-0.306655	0.549457	0.455488	-0.303422	0.476894	0.449905	-0.262363	0.393801	0.352812	-0.314045	0.759061	0.82098	-0.205221	0.78987	0.729813	-0.243284	0.679006	0.67346	-0.244808	0.282056	0.142981	-0.373601	0.925003	1.40052	-0.111323	0.847294	1.34877	-0.0991785	0.865333	1.2949	-0.0592849
50	0.57	0.863033	1.57285	-0.349306	0.984797	1.49437	-0.362142	0.853701	1.5651	-0.511486	0.935995	1.06678	-0.474563	0.967792	0.184255	-0.413032	0.825899	1.28763	-0.54897	0.650473	1.2678	-0.546571	0.810982	1.2221	-0.563363	0.583091	1.3377	-0.556681	0.595226	1.32748	-0.464246	1.12888	0.125287	-0.495562	0.773735	1.54187	-0.484234	0.784517	1.11197	-0.397258	1.14321	0.509009	-0.472898	1.04584	0.418842	-0.500608	1.09389	0.321087	-0.457848	0.899522	0.86377	-0.522707	1.02959	0.81968	-0.524439	1.04204	0.712552	-0.503673	1.1885	0.145074	-0.426759	0.729216	1.48989	-0.531339	0.667049	1.43888	-0.480937	0.626462	1.40985	-0.536496	0.949006	1.54426	-0.212144	0.955134	1.04561	-0.251636	0.233754	0.40062	-0.358278	1.03113	1.31273	-0.238131	0.939558	1.20534	-0.0979734	1.06002	1.25122	-0.232071	0.89209	1.22878	-0.0407568	0.263944	0.344999	-0.299893	0.826851	1.21394	-0.110626	0.294911	0.342355	-0.378589	0.211301	0.225996	-0.298078	0.790871	1.10594	-0.305149	0.54627	0.46052	-0.307715	0.474325	0.461171	-0.265437	0.380956	0.373532	-0.315605	0.765868	0.816601	-0.206925	0.79629	0.727972	-0.24933	0.686486	0.669471	-0.247508	0.250584	0.176567	-0.373998	0.929461	1.39922	-0.113086	0.851119	1.34871	-0.0994553	0.869403	1.2947	-0.0602254
51	0.58	0.865746	1.5748	-0.351013	0.985883	1.49302	-0.363876	0.855487	1.56439	-0.513271	0.933621	1.06667	-0.474627	1.00123	0.161986	-0.404285	0.826719	1.28348	-0.549409	0.651113	1.26518	-0.542707	0.811214	1.21796	-0.563009	0.583921	1.33585	-0.551639	0.598378	1.32612	-0.459704	1.16512	0.112682	-0.487449	0.775301	1.54245	-0.485553	0.782585	1.1092	-0.395882	1.14187	0.498856	-0.472585	1.05486	0.39813	-0.496601	1.1129	0.307218	-0.453378	0.894471	0.861179	-0.522582	1.02307	0.812925	-0.52667	1.03267	0.704419	-0.505919	1.22405	0.13992	-0.420588	0.729951	1.48903	-0.531299	0.669346	1.43805	-0.478457	0.627693	1.40845	-0.53285	0.953331	1.54335	-0.214006	0.955014	1.0464	-0.25065	0.227397	0.435198	-0.359012	1.03421	1.30675	-0.241393	0.940424	1.20308	-0.0999963	1.06156	1.24458	-0.234808	0.893552	1.22806	-0.0425734	0.252827	0.379018	-0.298998	0.828203	1.21458	-0.112058	0.282964	0.371007	-0.377586	0.190134	0.26528	-0.293717	0.789938	1.10403	-0.303634	0.545776	0.464723	-0.310778	0.474601	0.47281	-0.268085	0.372289	0.394865	-0.316022	0.773474	0.810744	-0.208851	0.803874	0.724742	-0.254472	0.69494	0.664128	-0.250269	0.224423	0.210888	-0.368126	0.932784	1.39767	-0.114975	0.853663	1.34875	-0.100178	0.871796	1.29439	-0.0615344
52	0.59	0.867673	1.57521	-0.352701	0.986539	1.49038	-0.365188	0.8578	1.56288	-0.514894	0.931382	1.06607	-0.474939	1.02762	0.144535	-0.39526	0.828952	1.27746	-0.550746	0.653333	1.26075	-0.54102	0.812777	1.21206	-0.56391	0.586508	1.33221	-0.548654	0.602604	1.32281	-0.457339	1.19248	0.103526	-0.481206	0.777161	1.54213	-0.487059	0.779736	1.10553	-0.393566	1.13758	0.487716	-0.472017	1.0591	0.37963	-0.4916	1.12607	0.294935	-0.448958	0.891813	0.859878	-0.524295	1.01792	0.805303	-0.528676	1.02342	0.695184	-0.5082	1.25098	0.136448	-0.416866	0.731431	1.48729	-0.5321	0.672247	1.43603	-0.477458	0.630104	1.40545	-0.531016	0.956711	1.54155	-0.215928	0.955027	1.04578	-0.24967	0.228064	0.468713	-0.362167	1.03802	1.29725	-0.244031	0.93975	1.19936	-0.10129	1.0627	1.23423	-0.236138	0.893152	1.22724	-0.0444882	0.24768	0.414217	-0.298434	0.828085	1.21497	-0.113588	0.27718	0.398568	-0.376438	0.17483	0.307706	-0.286916	0.789299	1.10071	-0.302102	0.54813	0.467737	-0.312389	0.477993	0.484391	-0.270231	0.368243	0.416158	-0.31542	0.780471	0.804578	-0.210452	0.811862	0.720299	-0.257195	0.70378	0.657797	-0.252737	0.204648	0.245193	-0.356584	0.934807	1.39626	-0.116888	0.854879	1.3489	-0.10134	0.872585	1.294	-0.0630992
53	0.6	0.868706	1.57324	-0.354282	0.986911	1.48664	-0.366091	0.860343	1.56007	-0.51647	0.929383	1.06478	-0.475338	1.04515	0.131651	-0.387335	0.832263	1.26976	-0.553053	0.656667	1.25456	-0.541656	0.815389	1.20455	-0.566146	0.590383	1.32665	-0.547922	0.607427	1.31732	-0.457285	1.21009	0.095336	-0.475799	0.779176	1.5403	-0.488861	0.776777	1.10129	-0.390835	1.13121	0.477094	-0.471771	1.05837	0.364852	-0.486672	1.13282	0.284937	-0.445527	0.890519	0.858071	-0.526534	1.01305	0.796418	-0.530348	1.01394	0.685301	-0.50917	1.26812	0.133151	-0.414118	0.733451	1.48406	-0.533783	0.675272	1.43237	-0.477974	0.633341	1.40053	-0.531137	0.958736	1.53892	-0.217641	0.955214	1.04352	-0.249116	0.234432	0.50009	-0.366825	1.04163	1.28443	-0.245922	0.937599	1.19432	-0.101617	1.06294	1.22063	-0.235848	0.891151	1.22617	-0.0463285	0.249163	0.448747	-0.298568	0.826613	1.21469	-0.114886	0.277115	0.424955	-0.375853	0.167983	0.350741	-0.27894	0.78892	1.09634	-0.300549	0.553433	0.46948	-0.312851	0.484838	0.4951	-0.271959	0.369121	0.436667	-0.314548	0.786187	0.798326	-0.211598	0.819618	0.714718	-0.257265	0.712675	0.650416	-0.254845	0.192371	0.279684	-0.342431	0.935474	1.39482	-0.118566	0.854762	1.34876	-0.10286	0.871892	1.29332	-0.064638
